<?xml version="1.0" standalone="no"?>
<!DOCTYPE svg PUBLIC "-//W3C//DTD SVG 20010904//EN"
 "http://www.w3.org/TR/2001/REC-SVG-20010904/DTD/svg10.dtd">
<svg version="1.0" xmlns="http://www.w3.org/2000/svg"
 width="1000.000000pt" height="1000.000000pt" viewBox="0 0 1000.000000 1000.000000"
 preserveAspectRatio="xMidYMid meet">

<g transform="translate(0.000000,1000.000000) scale(0.100000,-0.100000)"
fill="#000000" stroke="none">
<path d="M3614 8361 c-2 -2 -4 -24 -4 -47 0 -30 5 -47 18 -56 10 -7 22 -26 26
-42 4 -16 16 -41 27 -54 10 -14 19 -33 19 -43 0 -9 11 -31 25 -47 14 -17 25
-39 25 -50 0 -11 11 -34 25 -50 14 -17 25 -39 25 -50 0 -11 11 -34 25 -50 14
-17 25 -39 25 -50 0 -11 11 -34 25 -50 14 -17 25 -41 25 -54 0 -14 11 -35 25
-48 14 -14 25 -35 25 -50 0 -16 10 -35 25 -48 16 -14 25 -32 25 -50 0 -18 9
-37 25 -50 16 -14 25 -32 25 -50 0 -18 9 -37 25 -50 15 -13 25 -33 25 -48 0
-14 11 -39 25 -56 14 -16 25 -40 25 -52 0 -12 11 -32 25 -44 16 -14 25 -32 25
-51 0 -18 8 -35 20 -44 11 -8 23 -29 26 -48 4 -19 18 -47 31 -62 12 -16 23
-38 23 -49 0 -11 11 -33 25 -50 14 -16 25 -40 25 -52 0 -13 9 -31 19 -40 11
-10 23 -32 27 -50 3 -17 14 -40 24 -51 10 -11 21 -31 25 -45 4 -14 15 -34 25
-45 10 -11 21 -34 24 -51 4 -18 15 -39 26 -49 10 -9 21 -31 24 -49 4 -18 15
-41 25 -50 11 -10 22 -32 25 -50 4 -18 15 -41 26 -51 11 -10 20 -28 20 -40 0
-11 11 -36 25 -55 14 -19 25 -44 25 -56 0 -12 11 -36 25 -52 14 -17 25 -39 25
-50 0 -12 11 -33 25 -48 14 -15 25 -36 25 -47 0 -10 11 -32 25 -49 14 -16 25
-40 25 -52 0 -12 11 -32 25 -44 16 -14 25 -32 25 -50 0 -18 9 -37 25 -50 16
-14 25 -32 25 -51 0 -20 8 -34 25 -45 17 -11 25 -26 25 -46 0 -17 10 -40 25
-56 14 -15 25 -39 25 -54 0 -15 10 -36 25 -50 14 -13 25 -34 25 -48 0 -13 11
-37 25 -54 14 -17 25 -42 25 -58 0 -19 7 -33 20 -40 10 -6 22 -26 26 -44 3
-19 14 -42 24 -51 11 -10 22 -31 26 -49 4 -17 17 -44 30 -59 13 -16 24 -37 24
-47 0 -11 9 -27 19 -37 10 -10 24 -35 29 -55 6 -21 20 -50 31 -64 12 -15 21
-34 21 -44 0 -9 9 -25 19 -34 11 -10 22 -30 26 -44 3 -15 15 -36 24 -47 10
-11 21 -35 25 -54 3 -19 15 -40 26 -48 12 -9 20 -26 20 -44 0 -19 9 -38 25
-53 14 -13 25 -34 25 -49 0 -14 11 -38 25 -53 14 -15 25 -37 25 -50 0 -13 11
-35 25 -50 14 -15 25 -37 25 -50 0 -13 11 -35 25 -50 14 -16 25 -39 25 -55 0
-19 8 -34 25 -45 18 -12 25 -25 25 -48 0 -22 8 -40 25 -56 14 -13 25 -34 25
-48 0 -13 11 -37 25 -54 14 -16 25 -39 25 -50 0 -11 11 -33 25 -50 14 -16 25
-40 25 -52 0 -13 11 -35 25 -50 14 -15 25 -36 25 -48 0 -11 11 -33 25 -50 14
-16 25 -39 25 -50 0 -11 11 -33 25 -50 14 -16 25 -39 25 -50 0 -11 11 -33 25
-50 14 -16 25 -40 25 -52 0 -13 9 -31 20 -41 11 -10 22 -33 26 -51 3 -18 15
-40 25 -50 10 -9 19 -25 19 -34 0 -9 11 -31 25 -50 14 -19 25 -41 25 -50 0 -9
11 -31 25 -50 14 -19 25 -42 25 -51 0 -10 11 -31 25 -47 14 -17 25 -41 25 -54
0 -14 11 -35 25 -48 14 -14 25 -35 25 -50 0 -16 10 -35 25 -48 16 -14 25 -32
25 -50 0 -17 10 -38 25 -52 14 -14 25 -35 25 -50 0 -15 11 -36 25 -50 14 -13
25 -34 25 -48 0 -13 11 -37 25 -54 14 -16 25 -39 25 -50 0 -11 11 -33 25 -50
14 -16 25 -39 25 -50 0 -11 11 -33 25 -50 14 -16 25 -39 25 -50 0 -11 11 -33
25 -50 14 -16 25 -39 25 -50 0 -11 11 -33 25 -50 14 -16 25 -40 25 -53 0 -15
11 -32 29 -44 29 -21 39 -21 568 -21 368 0 565 -4 623 -12 51 -8 204 -13 380
-13 269 0 295 1 298 17 2 9 -11 31 -27 49 -22 22 -31 42 -31 65 0 23 -6 37
-20 44 -13 7 -20 21 -20 41 0 19 -9 38 -25 53 -16 15 -25 34 -25 55 0 21 -8
38 -25 53 -15 13 -25 32 -25 48 0 15 -11 36 -25 50 -14 14 -25 35 -25 50 0 15
-11 36 -25 50 -16 15 -25 34 -25 55 0 21 -8 39 -25 53 -16 14 -25 32 -25 50 0
17 -10 38 -25 52 -15 14 -25 35 -25 52 0 18 -9 36 -25 50 -15 13 -25 32 -25
48 0 15 -11 39 -25 54 -15 16 -25 39 -25 56 0 18 -8 34 -21 43 -13 10 -23 30
-26 56 -4 26 -13 45 -23 51 -11 6 -21 27 -25 50 -4 23 -14 44 -25 50 -11 6
-21 27 -25 50 -4 24 -14 44 -26 50 -11 7 -21 26 -25 51 -4 23 -14 44 -25 49
-10 6 -21 27 -25 48 -4 20 -18 47 -30 59 -13 12 -24 34 -24 48 0 14 -9 33 -20
43 -11 9 -23 34 -26 54 -4 20 -15 45 -25 54 -11 9 -19 30 -19 46 0 18 -9 38
-25 52 -16 15 -25 34 -25 53 0 19 -9 37 -25 51 -14 13 -25 33 -25 47 0 14 -10
35 -21 46 -12 12 -26 38 -31 58 -6 20 -19 44 -29 54 -10 10 -19 29 -19 42 0
13 -11 37 -25 53 -14 17 -25 41 -25 55 0 14 -11 38 -25 53 -14 15 -25 39 -25
54 0 15 -10 36 -25 50 -15 14 -25 35 -25 50 0 15 -11 39 -25 54 -15 16 -25 39
-25 56 0 17 -8 34 -20 43 -11 8 -23 29 -26 48 -4 19 -18 47 -31 62 -12 16 -23
40 -23 54 0 15 -11 36 -25 49 -14 13 -25 33 -25 45 0 11 -11 34 -25 51 -14 16
-25 40 -25 52 0 13 -9 31 -19 40 -10 10 -22 34 -26 54 -4 20 -15 46 -25 57 -9
11 -20 36 -24 56 -3 20 -15 44 -26 54 -11 10 -20 28 -20 41 0 12 -11 36 -25
52 -14 17 -25 39 -25 50 0 11 -11 34 -25 50 -14 17 -25 39 -25 50 0 11 -11 34
-25 50 -14 17 -25 39 -25 50 0 11 -11 33 -24 49 -13 15 -26 45 -30 65 -4 22
-15 42 -26 48 -13 7 -20 21 -20 40 0 16 -11 41 -25 58 -14 17 -25 41 -25 55 0
14 -11 38 -25 53 -14 15 -25 38 -25 50 0 13 -9 33 -20 44 -11 11 -23 35 -27
53 -3 18 -14 41 -23 52 -10 11 -23 39 -29 61 -6 23 -18 44 -26 47 -7 3 -17 23
-21 44 -3 21 -15 47 -24 58 -10 11 -22 34 -26 50 -3 17 -15 39 -24 50 -10 11
-23 39 -29 63 -7 23 -16 42 -21 42 -5 0 -15 19 -21 43 -7 23 -20 51 -30 62 -9
11 -20 34 -23 51 -4 18 -16 40 -27 50 -10 9 -19 27 -19 40 0 12 -11 36 -25 52
-14 17 -25 39 -25 50 0 11 -11 33 -24 49 -13 15 -27 43 -30 60 -4 18 -16 39
-26 46 -10 7 -21 29 -25 49 -4 20 -16 44 -26 54 -10 9 -19 27 -19 40 0 12 -11
36 -25 52 -14 17 -25 42 -25 56 0 15 -10 35 -25 48 -16 13 -25 32 -25 50 0 18
-9 36 -25 50 -17 14 -25 32 -25 53 0 21 -8 39 -25 53 -16 14 -25 32 -25 50 0
17 -10 38 -25 52 -15 14 -25 35 -25 50 0 15 -11 39 -25 54 -14 15 -25 39 -25
55 0 17 -10 36 -25 49 -15 13 -25 33 -25 48 0 14 -11 39 -25 56 -14 17 -25 42
-25 58 0 19 -7 33 -20 40 -11 6 -22 26 -26 48 -3 20 -15 46 -24 57 -10 11 -22
34 -26 50 -4 17 -18 43 -31 58 -12 16 -23 39 -23 53 0 13 -9 32 -20 41 -11 10
-20 27 -20 38 0 11 -4 26 -8 32 -6 10 -224 13 -971 15 -529 2 -965 1 -967 -1z"/>
<path d="M3506 7993 c-3 -3 -6 -28 -6 -55 0 -32 -7 -58 -19 -76 -10 -15 -22
-53 -25 -86 -4 -32 -15 -70 -25 -85 -11 -16 -21 -53 -24 -95 -4 -44 -13 -76
-24 -88 -11 -13 -20 -45 -24 -95 -5 -50 -13 -81 -25 -95 -12 -13 -21 -44 -25
-94 -5 -45 -15 -86 -25 -102 -10 -15 -21 -55 -25 -89 -4 -40 -14 -71 -28 -89
-15 -19 -21 -41 -21 -74 0 -30 -8 -63 -23 -91 -15 -28 -26 -69 -29 -112 -4
-44 -12 -75 -23 -87 -12 -13 -20 -45 -25 -94 -5 -53 -13 -82 -29 -101 -16 -22
-21 -41 -21 -89 0 -51 -5 -68 -25 -96 -20 -27 -25 -46 -25 -90 0 -44 -5 -63
-25 -90 -21 -28 -25 -45 -25 -99 0 -52 -4 -69 -21 -88 -16 -16 -24 -41 -28
-92 -5 -47 -13 -76 -25 -90 -14 -15 -21 -43 -25 -94 -4 -50 -12 -79 -23 -91
-16 -16 -20 -30 -32 -121 -3 -21 -15 -52 -26 -67 -15 -20 -20 -43 -20 -85 0
-44 -6 -68 -25 -98 -19 -31 -24 -54 -25 -102 0 -50 -4 -67 -21 -84 -15 -15
-23 -39 -28 -93 -5 -52 -13 -80 -29 -100 -17 -22 -22 -42 -22 -85 0 -42 -6
-66 -25 -96 -17 -29 -24 -55 -25 -92 0 -36 -8 -67 -25 -99 -18 -34 -25 -62
-25 -104 0 -44 -5 -64 -22 -85 -15 -20 -23 -47 -28 -99 -3 -40 -13 -82 -22
-96 -9 -14 -20 -58 -23 -100 -4 -43 -15 -88 -25 -105 -15 -25 -17 -41 -11 -95
7 -60 6 -82 -5 -119 -3 -10 -7 -11 -18 -2 -18 15 -22 7 -31 -52 -5 -29 -18
-61 -36 -83 -24 -31 -29 -46 -29 -92 0 -43 -5 -61 -21 -78 -15 -17 -22 -40
-26 -99 -5 -59 -11 -81 -26 -96 -14 -13 -22 -37 -26 -86 -4 -44 -14 -81 -29
-104 -16 -26 -22 -52 -22 -91 0 -41 -5 -62 -21 -82 -14 -18 -24 -50 -29 -96
-5 -46 -15 -78 -29 -96 -16 -20 -21 -41 -21 -87 0 -44 -5 -66 -17 -80 -17 -18
-46 -157 -33 -157 3 0 24 17 46 37 54 51 93 80 132 98 18 9 35 22 39 30 3 8
10 15 16 15 7 0 23 11 37 25 45 44 97 85 109 85 6 0 21 11 33 25 12 14 25 25
30 25 4 0 31 23 60 50 29 28 58 50 65 50 7 0 23 11 35 25 12 14 27 25 35 25 7
0 20 11 29 25 9 14 22 25 28 25 7 0 23 11 35 24 13 13 34 27 47 30 13 4 28 15
34 26 6 11 16 20 23 20 7 0 24 12 39 28 14 15 43 41 63 57 20 17 44 38 53 48
9 9 22 17 29 17 7 0 26 12 43 27 43 40 80 70 125 103 22 16 57 42 78 57 21 15
48 38 59 51 12 12 27 22 34 22 7 0 25 11 40 25 15 14 32 25 39 25 6 0 17 11
23 25 6 14 18 25 27 25 8 0 22 11 31 25 9 14 22 25 29 25 14 0 68 40 140 106
28 24 74 60 103 78 30 19 61 41 70 50 63 58 86 76 97 76 6 0 22 11 35 25 13
14 29 25 35 25 6 0 21 10 33 23 40 41 93 81 164 123 11 6 26 21 34 33 8 11 22
21 30 21 8 0 17 7 21 15 3 9 23 25 44 35 36 19 59 60 59 109 0 8 7 22 15 31
11 12 18 48 22 106 5 65 13 101 30 133 17 33 23 60 23 111 0 50 5 73 19 91 13
18 20 48 24 116 4 68 11 99 25 120 13 19 22 52 26 101 4 40 15 90 25 110 10
21 20 68 23 109 4 47 12 82 24 100 11 17 21 55 24 98 5 51 13 80 29 101 18 25
23 45 24 107 1 66 -2 79 -21 100 -12 13 -22 35 -22 50 0 14 -11 38 -25 53 -14
15 -25 39 -25 54 0 15 -10 36 -25 50 -15 14 -25 35 -25 52 0 17 -9 36 -24 49
-13 12 -27 37 -31 56 -3 19 -13 37 -20 40 -8 3 -20 23 -26 44 -7 21 -20 46
-31 55 -10 10 -18 27 -18 40 0 12 -11 36 -25 52 -14 17 -25 38 -25 49 0 11
-11 34 -25 53 -14 19 -25 44 -25 55 0 12 -9 32 -20 45 -11 13 -24 38 -29 56
-5 19 -19 46 -30 60 -12 15 -21 34 -21 44 0 10 -9 28 -19 42 -11 13 -24 43
-30 66 -7 23 -16 42 -21 42 -4 0 -16 22 -25 49 -9 27 -22 54 -30 61 -7 6 -16
25 -19 43 -3 18 -15 40 -26 50 -11 9 -20 26 -20 36 0 11 -11 33 -25 49 -14 17
-25 39 -25 50 0 11 -11 34 -25 50 -14 17 -25 39 -25 50 0 11 -11 34 -25 50
-14 17 -25 41 -25 54 0 14 -11 35 -25 48 -15 14 -25 35 -25 52 0 18 -9 36 -25
50 -15 13 -25 32 -25 49 0 16 -11 40 -25 55 -14 15 -25 37 -25 50 0 13 -11 35
-25 50 -14 15 -25 39 -25 54 0 16 -10 35 -25 48 -16 14 -25 32 -25 50 0 18 -9
37 -25 50 -15 13 -25 33 -25 48 0 14 -9 37 -20 51 -11 14 -20 36 -20 49 0 24
-13 38 -24 27z"/>
<path d="M4700 4466 c0 -24 18 -28 30 -6 9 17 8 20 -10 20 -11 0 -20 -6 -20
-14z"/>
<path d="M4825 4400 c-3 -5 -1 -10 4 -10 6 0 11 5 11 10 0 6 -2 10 -4 10 -3 0
-8 -4 -11 -10z"/>
<path d="M5256 4355 c-11 -8 -26 -15 -34 -15 -8 0 -25 -10 -38 -22 -50 -50
-153 -128 -167 -128 -5 0 -20 -10 -32 -22 -40 -43 -137 -123 -155 -130 -10 -3
-29 -18 -43 -32 -14 -14 -30 -26 -36 -26 -5 0 -13 -9 -16 -20 -3 -11 -12 -20
-20 -20 -7 0 -26 -11 -42 -24 -15 -13 -38 -26 -51 -30 -12 -4 -27 -16 -32 -27
-6 -10 -17 -19 -25 -19 -8 0 -22 -11 -31 -25 -9 -14 -22 -25 -29 -25 -15 0
-112 -72 -168 -126 -12 -12 -37 -29 -54 -38 -18 -9 -33 -21 -33 -26 0 -5 -11
-12 -24 -16 -14 -3 -32 -17 -41 -30 -8 -13 -22 -24 -29 -24 -8 0 -16 -7 -19
-15 -6 -13 -61 -54 -113 -83 -13 -7 -29 -22 -34 -33 -6 -10 -17 -19 -25 -19
-8 0 -20 -8 -27 -19 -7 -10 -28 -26 -46 -35 -18 -9 -36 -24 -39 -32 -3 -7 -11
-14 -19 -14 -12 0 -39 -22 -99 -80 -12 -11 -26 -20 -31 -20 -15 0 -116 -77
-168 -127 -13 -13 -28 -23 -33 -23 -12 0 -102 -69 -179 -137 -14 -13 -30 -23
-36 -23 -11 0 -47 -28 -118 -92 -25 -22 -61 -47 -80 -55 -19 -8 -41 -24 -48
-34 -7 -10 -20 -19 -28 -19 -8 0 -17 -7 -21 -15 -3 -9 -23 -25 -44 -36 -22
-11 -39 -24 -39 -29 0 -5 -8 -11 -19 -15 -17 -5 -39 -23 -106 -84 -11 -11 -30
-22 -43 -26 -12 -3 -27 -15 -32 -26 -6 -10 -16 -19 -23 -19 -6 0 -23 -11 -37
-25 -35 -36 -101 -85 -113 -85 -5 0 -20 -10 -33 -23 -50 -49 -153 -127 -167
-127 -10 0 -30 -17 -84 -73 -15 -15 -31 -27 -36 -27 -5 0 -22 -11 -39 -25 -16
-14 -35 -25 -43 -25 -7 0 -20 -11 -29 -25 -9 -14 -23 -25 -31 -25 -8 0 -22
-11 -31 -24 -8 -14 -29 -28 -45 -31 -16 -4 -29 -11 -29 -16 0 -5 -11 -15 -25
-21 -14 -6 -25 -14 -25 -18 0 -12 2363 -20 2377 -8 7 6 13 20 13 33 0 12 9 30
20 40 11 10 25 35 30 57 6 21 15 38 20 38 6 0 17 18 26 39 8 22 21 42 29 44 7
3 15 21 19 41 4 19 15 41 26 49 10 7 22 26 26 42 3 17 15 39 24 50 10 11 25
36 34 55 36 76 59 115 72 123 8 4 14 19 14 32 0 13 11 37 25 53 14 17 25 40
25 51 0 12 11 33 25 47 14 14 25 36 25 49 0 13 11 37 25 53 14 17 25 40 25 51
0 12 11 32 24 44 13 12 27 33 31 47 4 14 13 32 20 40 7 8 20 32 28 53 9 20 21
37 26 37 6 0 15 18 21 40 6 22 20 44 30 50 11 6 20 21 20 35 0 13 11 36 24 52
14 16 28 41 31 55 4 15 15 34 26 44 10 9 19 25 19 34 0 9 11 29 25 44 14 15
25 36 25 47 0 10 11 29 25 41 14 12 25 32 25 44 0 12 8 30 18 40 17 17 43 63
77 134 10 19 26 43 36 53 10 10 19 28 19 41 0 12 11 32 25 44 16 14 25 32 25
51 0 18 8 35 20 44 10 7 24 25 29 40 6 15 15 27 21 27 15 0 12 19 -5 36 -8 9
-15 28 -15 43 0 16 -10 37 -25 51 -15 14 -25 35 -25 52 0 18 -9 36 -25 50 -16
13 -25 32 -25 50 0 18 -8 33 -24 44 -14 8 -28 29 -31 45 -7 33 -12 34 -39 14z"/>
<path d="M4657 4277 c-11 -29 -9 -43 4 -30 6 6 9 19 7 29 -3 18 -4 18 -11 1z"/>
<path d="M5660 3570 c0 -5 5 -10 11 -10 5 0 7 5 4 10 -3 6 -8 10 -11 10 -2 0
-4 -4 -4 -10z"/>
</g>
</svg>
